<svg width="30" height="30" viewBox="0 0 30 30" fill="none" xmlns="http://www.w3.org/2000/svg">
<circle cx="15" cy="15" r="15" fill="#F2994A"/>
<path d="M24.7024 9.11415C24.0066 9.42248 23.2591 9.63082 22.4733 9.72498C23.2841 9.23981 23.8907 8.4762 24.1799 7.57665C23.4181 8.02914 22.5844 8.34765 21.7149 8.51832C21.1302 7.89404 20.3558 7.48025 19.5119 7.34121C18.6679 7.20217 17.8017 7.34564 17.0476 7.74936C16.2936 8.15308 15.6939 8.79445 15.3417 9.5739C14.9895 10.3534 14.9045 11.2273 15.0999 12.06C13.5563 11.9825 12.0463 11.5813 10.6678 10.8824C9.28928 10.1835 8.07313 9.20262 7.09826 8.00332C6.76493 8.57832 6.57326 9.24498 6.57326 9.95498C6.57289 10.5941 6.73029 11.2235 7.03149 11.7873C7.3327 12.351 7.7684 12.8317 8.29993 13.1866C7.68349 13.167 7.08066 13.0005 6.5416 12.7008V12.7508C6.54153 13.6473 6.85162 14.5161 7.41925 15.21C7.98687 15.9038 8.77707 16.3799 9.65576 16.5575C9.08391 16.7122 8.48438 16.735 7.90243 16.6241C8.15034 17.3955 8.63326 18.07 9.28357 18.5533C9.93388 19.0365 10.719 19.3043 11.5291 19.3191C10.154 20.3987 8.45567 20.9842 6.70743 20.9816C6.39775 20.9817 6.08833 20.9636 5.78076 20.9275C7.55533 22.0685 9.62105 22.674 11.7308 22.6716C18.8724 22.6716 22.7766 16.7566 22.7766 11.6266C22.7766 11.46 22.7724 11.2916 22.7649 11.125C23.5243 10.5758 24.1799 9.89573 24.7008 9.11665L24.7024 9.11415Z" fill="white"/>
</svg>
