<svg width="30" height="30" viewBox="0 0 30 30" fill="none" xmlns="http://www.w3.org/2000/svg">
<circle cx="15" cy="15" r="15" fill="#F2994A"/>
<g clip-path="url(#clip0_1501_560)">
<path fill-rule="evenodd" clip-rule="evenodd" d="M24.5417 9.95663C24.68 9.50163 24.5417 9.16663 23.8792 9.16663H21.6917C21.135 9.16663 20.8783 9.45579 20.7392 9.77496C20.7392 9.77496 19.6267 12.4383 18.0508 14.1683C17.5408 14.67 17.3092 14.8291 17.0308 14.8291C16.8917 14.8291 16.6825 14.67 16.6825 14.2141V9.95663C16.6825 9.40996 16.5292 9.16663 16.0658 9.16663H12.6258C12.2783 9.16663 12.0692 9.41996 12.0692 9.66079C12.0692 10.1783 12.8575 10.2983 12.9383 11.755V14.92C12.9383 15.6141 12.8108 15.74 12.5325 15.74C11.7908 15.74 9.98667 13.0641 8.91583 10.0025C8.70833 9.40663 8.49833 9.16663 7.93917 9.16663H5.75C5.125 9.16663 5 9.45579 5 9.77496C5 10.3433 5.74167 13.1666 8.45417 16.9008C10.2625 19.4508 12.8083 20.8333 15.1275 20.8333C16.5183 20.8333 16.69 20.5266 16.69 19.9975V18.07C16.69 17.4558 16.8217 17.3333 17.2625 17.3333C17.5875 17.3333 18.1433 17.4933 19.4417 18.7225C20.925 20.18 21.1692 20.8333 22.0042 20.8333H24.1917C24.8167 20.8333 25.13 20.5266 24.95 19.92C24.7517 19.3166 24.0433 18.4408 23.1042 17.4016C22.5942 16.81 21.8292 16.1725 21.5967 15.8533C21.2725 15.4441 21.365 15.2616 21.5967 14.8975C21.5967 14.8975 24.2633 11.2091 24.5408 9.95663H24.5417Z" fill="white"/>
</g>
<defs>
<clipPath id="clip0_1501_560">
<rect width="20" height="20" fill="white" transform="translate(5 5)"/>
</clipPath>
</defs>
</svg>
