<svg width="30" height="30" viewBox="0 0 30 30" fill="none" xmlns="http://www.w3.org/2000/svg">
<circle cx="15" cy="15" r="15" fill="#F2994A"/>
<g clip-path="url(#clip0_1501_556)">
<path d="M5.95008 12.7458L6.09174 12.9566C5.80841 12.9483 5.51174 12.9208 5.45508 12.7991C5.45508 12.7933 5.45674 12.7874 5.45841 12.7816C5.61674 12.7399 5.75258 12.7374 5.95008 12.7458ZM7.45508 13.3874L7.52341 13.5958L7.36341 13.6024L7.40174 13.3891C7.41955 13.3891 7.43735 13.3883 7.45508 13.3866V13.3874ZM8.00008 14.9083C7.85841 15.0383 7.74924 15.1249 7.66508 15.3224C7.54841 15.2266 7.48758 15.0366 7.45008 14.8241C7.40841 14.5924 7.39508 14.3349 7.36341 14.1424L7.37341 14.0441L7.53758 14.0324L7.95591 14.8241L8.00008 14.9074V14.9083ZM7.78841 12.9566C7.80919 12.8143 7.83058 12.6721 7.85258 12.5299L7.90674 12.5266C7.86674 12.6699 7.82674 12.8133 7.78841 12.9566ZM7.67424 11.0216L8.42424 11.2249C8.42302 11.236 8.42191 11.2471 8.42091 11.2583C8.07174 11.5166 7.74924 11.6299 7.57591 12.0966L7.64174 11.0583L7.67424 11.0224V11.0216ZM8.37424 9.9466C8.32591 10.4299 8.39424 10.6433 8.47841 10.9433C8.61174 11.0383 8.66508 11.0958 8.62174 11.2366C8.39674 11.1249 8.15841 11.0083 7.81341 11.0266C7.805 11.0169 7.79666 11.0072 7.78841 10.9974C7.88508 10.6166 8.07341 10.3824 8.21924 10.0808L8.37508 9.94576L8.37424 9.9466ZM9.45258 9.30326L9.48508 9.30076C9.38174 9.65743 9.34008 10.4799 9.15924 10.8066C8.73174 10.6041 8.74008 9.7266 9.21841 9.37993L9.45174 9.30326H9.45258ZM9.05424 11.9449L9.41424 12.3358C9.27258 12.7708 9.00508 13.0983 8.89174 13.6024L8.67924 13.5858C8.49758 13.0783 8.95174 12.2516 9.02924 11.8816L9.36258 11.9199C9.40424 12.0241 9.44424 12.1283 9.48508 12.2333L9.05424 11.9441V11.9449ZM10.0392 9.29993C10.0026 9.72243 10.0959 9.9416 10.1209 10.2683C9.90924 10.3766 9.69674 10.4833 9.48508 10.5908C9.52439 10.1534 9.62917 9.72447 9.79591 9.31826L10.0392 9.29993ZM10.2859 8.65826L10.3334 8.65493L10.2617 8.86076L10.1209 8.86993L10.2292 8.74243L10.2859 8.65826ZM10.3334 10.6291L9.69674 11.0208C9.71008 10.7841 10.0117 10.4649 10.2642 10.3766L10.3226 10.4083L10.3334 10.6291ZM10.7584 9.14743C10.7192 9.36576 10.6809 9.58326 10.6434 9.8016L10.5242 9.8766L10.4609 9.94576C10.3459 9.7841 10.3167 9.38743 10.3417 9.08576L10.7584 9.14743ZM11.1817 8.65576C11.1817 8.6641 11.1801 8.67076 11.1792 8.67743L11.0167 8.83326C10.9084 8.87493 10.8951 8.87326 10.7584 8.86826C10.7759 8.79743 10.7959 8.7266 10.8151 8.65576H11.1817ZM11.6067 7.79576L11.4167 8.22493L10.7584 8.17743L10.7609 8.14243C11.0317 8.01743 11.2692 7.8691 11.6059 7.79493L11.6067 7.79576ZM11.2634 8.91243L11.3334 8.87076L11.3942 9.08576L11.1817 9.0441L11.2634 8.9116V8.91243ZM11.8184 9.54826C11.5659 9.6466 11.2167 9.6191 11.0142 9.7316C10.9997 9.64546 10.985 9.55934 10.9701 9.47326L11.1017 9.30076C11.3159 9.3841 11.5301 9.4691 11.7434 9.55326L11.8184 9.54826ZM11.2759 9.93493L10.9876 9.94576C10.9809 9.91576 10.9759 9.88576 10.9701 9.85493C11.1726 9.77243 11.5126 9.76493 11.8184 9.73076L11.4959 9.90826L11.2759 9.93493ZM12.0301 9.93493C11.7876 9.99576 11.5551 10.2099 11.3959 10.3766C11.3651 10.1816 11.7392 9.83826 11.9184 9.73076C11.9976 9.8016 12.0059 9.7941 12.0301 9.93493ZM12.4551 7.36576L12.4517 7.3991L12.1967 7.55326L11.8184 7.58076L11.8217 7.54743L12.4551 7.36576ZM12.1117 8.01076L12.0301 7.88993C12.2217 7.7291 12.6442 7.81743 12.8792 7.8416L12.1117 8.01076ZM14.0101 7.37743C14.3642 7.4066 14.6884 7.48993 14.9351 7.6441L15.0001 7.63993L14.9609 7.69493L14.6217 7.79493C14.4176 7.7666 14.2134 7.7366 14.0101 7.70743L12.6667 7.5166L12.6701 7.4891C13.1086 7.38494 13.5604 7.34757 14.0101 7.37826V7.37743ZM15.4209 7.2641L15.3459 7.36576C15.1426 7.35122 14.9482 7.27636 14.7876 7.15076L15.4242 7.2316L15.4209 7.2641ZM16.5509 8.0591L16.7267 7.99243L16.9092 8.1491C16.8842 8.32826 16.7117 8.47493 16.5792 8.6491L16.4776 8.65576C16.2009 8.19743 15.8517 7.6966 15.2392 7.51993L15.2126 7.46576L15.4601 7.36576C15.8759 7.51076 16.2226 7.73076 16.6084 7.85743C16.6584 7.97826 16.6426 7.93743 16.5501 8.0591H16.5509ZM17.0626 9.07826L17.0142 9.03076L16.9092 9.03826L17.0842 8.8716L17.0626 9.07826ZM17.2501 11.4516C17.5367 11.6999 17.6101 12.0599 17.4909 12.5266C17.3676 12.2499 17.2451 11.9724 17.1209 11.6958C17.1626 11.6341 17.2017 11.5724 17.2426 11.5108C17.2451 11.4908 17.2467 11.4708 17.2501 11.4516ZM17.3334 9.51826L17.3301 9.55826L17.1792 9.73076L17.1209 9.6166C17.2117 9.4541 17.1459 9.5416 17.2651 9.52493L17.3334 9.51826ZM17.5101 9.51576L18.1817 9.76493C18.1807 9.78722 18.1787 9.80946 18.1759 9.8316C18.1192 9.87076 18.0626 9.90826 18.0059 9.94576L17.3334 9.69743L17.3392 9.62993L17.5101 9.51576ZM18.8184 10.3766L18.4459 10.1291L18.3942 10.0291C18.5559 9.9291 18.5326 9.9341 18.7034 9.96743C18.7409 10.1041 18.7801 10.2399 18.8184 10.3758V10.3766ZM19.0301 10.2949L18.9551 10.3766C18.8651 10.3299 18.8492 10.2708 18.8184 10.1608L19.0126 10.2458L19.0301 10.2949ZM18.8717 9.6791L18.8184 9.68326C18.8767 9.62743 18.9351 9.5716 18.9951 9.5166C18.9534 9.57076 18.9117 9.62493 18.8717 9.6791ZM19.8792 10.7608L19.7751 10.8066C19.5857 10.7005 19.3966 10.5941 19.2076 10.4874C19.1483 10.407 19.0891 10.3264 19.0301 10.2458C19.3242 10.0291 19.3351 10.2808 19.6126 10.4183L19.8792 10.7608ZM20.0909 10.9508L19.8792 10.8733L20.0067 10.8066L20.0909 10.9508ZM19.8326 11.2974C19.9092 11.4516 19.9092 11.4083 20.0909 11.3849L19.7651 11.6666L19.4542 11.0733L19.4584 11.0366C19.6876 10.9874 19.7609 11.0699 19.9851 11.1033L20.0709 11.2416L19.8334 11.2974H19.8326ZM19.8792 11.6833L20.3034 11.4516C20.2184 11.6433 20.1076 11.7416 19.9767 11.8816L19.8792 11.6833ZM20.7276 12.5041C20.6126 12.6033 20.5376 12.6349 20.3201 12.6533L20.4951 12.6724L20.4917 12.7033L19.8942 12.9566L19.8792 12.1899L20.2909 11.7024L20.3659 11.6666L20.7276 12.5041ZM20.5151 11.3274C21.6867 11.0008 21.4601 11.6224 20.9376 12.0966C20.7959 11.8408 20.6551 11.5841 20.5151 11.3274ZM21.5759 11.4516C21.1442 13.4799 21.0609 13.5908 19.5342 14.4624C19.5086 14.4215 19.482 14.3812 19.4542 14.3416L19.5084 14.1149C20.5042 13.8316 21.0701 13.3099 21.0109 12.1291L21.5101 11.4874L21.5759 11.4516ZM21.6276 11.4516C21.6109 11.3816 21.5942 11.3116 21.5759 11.2416L21.7342 11.2366L21.6276 11.4516ZM19.0301 13.4241L19.0451 13.1999L19.0584 13.0083L19.2051 12.9591C19.2126 12.9591 19.2192 12.9574 19.2259 12.9566C19.2676 13.2108 19.2259 13.3983 19.1426 13.6024C19.0709 13.5566 19.0567 13.5374 19.0301 13.4241ZM18.1817 15.3058L18.1851 15.2683L18.4634 14.6024L18.5217 14.4624L19.0117 14.4958C19.0192 14.5324 19.0242 14.5683 19.0267 14.6024C19.0484 14.8558 18.9609 15.0583 18.8709 15.3224L18.1817 15.3058ZM18.3942 16.1691L18.4001 15.8358L18.4084 15.7524L18.7667 15.7791L18.8184 15.7749C18.7359 15.9108 18.6542 16.0466 18.5734 16.1833L18.3942 16.1691ZM18.1842 14.7774L18.2059 14.7666L18.3751 14.6791L18.3942 14.6774L18.3692 14.7666L18.2701 15.1074L18.1817 14.8041L18.1842 14.7774ZM17.8534 15.8483L17.7576 15.7524C17.8509 15.8174 17.7901 15.7541 17.8534 15.8483ZM17.3334 15.5924C17.4526 15.5174 17.5817 15.5408 17.7584 15.5424L17.7059 15.7149C17.5601 15.7733 17.5392 15.7516 17.3751 15.7341L17.3334 15.5924ZM17.5934 16.3974L17.7576 16.7858C17.6309 16.8716 17.5034 16.9566 17.3767 17.0433C17.2634 16.8874 17.3867 16.4516 17.5934 16.3974ZM17.1742 15.0474L17.1209 15.0516L17.1909 14.8924L17.1742 15.0483V15.0474ZM17.7851 15.1074L17.7576 15.0899L17.8509 14.8933L17.8817 14.8924L17.9701 15.0991L17.7851 15.1074ZM19.2542 12.3116L19.2426 12.2391C19.2984 12.1708 19.3342 12.1283 19.4301 12.0974L19.4551 12.2241C19.4134 12.2516 19.3717 12.2783 19.3309 12.3066L19.2542 12.3116ZM19.2426 12.8366C19.2042 12.8874 19.1359 12.9158 19.0876 12.9566L19.0301 11.8816L19.2426 12.8366ZM18.8534 14.2783C18.9934 14.1999 19.0134 14.2724 19.0301 14.4616H18.6059L18.6134 14.3949L18.8534 14.2783ZM18.6451 13.6841L18.7409 13.6024L18.8184 13.7408L18.7826 13.8174L18.6059 13.7966L18.6451 13.6841ZM18.6059 14.2541L18.3851 14.4624L18.2409 14.4383L18.1826 14.4441C18.2159 14.3783 18.2509 14.3124 18.2851 14.2474L18.6059 14.2541ZM17.8059 14.1316C17.7176 14.0699 17.7809 14.0783 17.7642 14.0316L17.8059 14.1316ZM18.4742 13.1716L17.7576 12.7999C17.7909 12.3083 17.8509 11.7433 17.8026 11.2366C18.3551 11.4366 18.8509 12.3358 18.4742 13.1716ZM17.9701 13.1716C18.1459 13.2649 18.1367 13.3499 18.3809 13.4249C18.4234 13.5841 18.3584 13.6474 18.2567 13.8166L17.9967 13.8066C17.9434 13.5233 18.0017 13.3608 17.9701 13.1716ZM18.0184 14.5624C17.9292 14.5008 17.9934 14.5091 17.9767 14.4624L18.0184 14.5624ZM19.4542 12.4924L19.4567 12.4524L19.6484 12.3116C19.6817 12.5316 19.6692 12.8983 19.6192 13.1716C19.5059 13.0833 19.4851 12.7099 19.4542 12.4924ZM19.4542 13.1716C19.4976 13.0999 19.5409 13.0283 19.5826 12.9566L19.5076 13.1683L19.4542 13.1716ZM20.6917 12.5291L20.7276 12.5266C20.7376 13.3508 20.2292 13.5008 19.5609 13.8099L19.4542 13.8174L19.8709 12.9541L20.6917 12.5291ZM19.4334 10.9191C19.4401 10.9408 19.4476 10.9616 19.4534 10.9833L19.4009 11.0216L19.2417 10.8066L19.4334 10.9191ZM19.2417 11.2774L19.2476 11.2399C19.2631 11.2387 19.2787 11.2376 19.2942 11.2366L19.4542 11.4516C19.3309 11.3933 19.3109 11.3783 19.2417 11.2766V11.2774ZM19.4534 11.8274L19.1676 12.0966L18.5534 11.2049L17.7567 10.5133L17.9317 10.3766C18.3176 10.5433 18.9926 10.8608 19.1284 11.2574C19.1726 11.3866 19.0201 11.4933 19.1234 11.6008C19.2467 11.7291 19.3701 11.6374 19.4542 11.8266L19.4534 11.8274ZM17.6634 13.1716L17.7284 13.1974L17.7567 13.8174L17.6576 13.7941C17.5642 13.7249 17.4992 13.4049 17.5842 13.2658L17.6634 13.1716ZM17.1934 14.2499L17.2617 14.2474L17.3326 14.4158L17.2242 14.4574L17.1201 14.4624C17.1451 14.3916 17.1701 14.3208 17.1934 14.2499ZM17.0001 17.6883L16.9084 17.3741C17.0392 17.3366 17.1692 17.2991 17.3001 17.2599L17.3334 17.2583C17.3317 17.2679 17.3303 17.2777 17.3292 17.2874L17.0001 17.6874V17.6883ZM16.6959 16.8283C16.7351 16.7016 16.7626 16.6824 16.8334 16.6124L16.8917 16.6358L16.9084 16.6908L16.7776 16.8191L16.6959 16.8274V16.8283ZM16.7959 17.0433L16.6959 16.9333L16.9084 16.8283L16.8534 17.0391L16.7959 17.0433ZM16.5726 18.0183C16.5426 17.9949 16.5142 17.9708 16.4842 17.9458L16.5492 17.9416L16.8767 17.6883L16.9084 17.9466L16.6576 18.1183L16.5726 18.0183ZM16.5892 20.4816C16.0784 20.5033 15.7726 20.3733 15.3559 20.3366L14.8784 19.3924L14.7867 19.2974C15.5884 19.2024 16.0926 18.8158 16.6867 18.5483C16.8967 18.7483 17.3726 19.7666 16.9534 20.2174C16.8534 20.3716 16.7409 20.3874 16.5884 20.4816H16.5892ZM14.3959 19.4208L14.5876 19.4083C14.8767 19.6024 15.0734 19.9499 15.2117 20.2691L14.3626 20.0233C14.4259 19.8083 14.4526 19.5899 14.3959 19.4208ZM13.7859 18.6091L14.7426 18.3333L16.2459 18.4799L16.2726 18.5558C15.8251 18.7574 15.3159 18.9274 14.8026 19.1874C14.2467 19.2316 14.1126 19.0241 13.7276 18.8874L13.7867 18.6091H13.7859ZM13.7267 19.6224L13.7459 19.4358L14.1117 19.4083C14.1417 19.5708 14.1734 19.6616 14.1284 19.8383L13.7267 19.6216V19.6224ZM13.3017 19.9591L13.4442 19.8808C13.6192 19.7649 13.7501 19.9191 13.9384 19.9799L13.8634 20.0533L13.3026 19.9591H13.3017ZM13.7142 19.6233C13.668 19.6027 13.6219 19.5819 13.5759 19.5608L13.5142 19.4083L13.7267 19.4216L13.7142 19.6233ZM13.0901 19.6233L13.3026 19.8058C13.3026 19.9183 13.2926 19.9058 13.2667 20.0533L13.0901 19.6233ZM12.5401 18.8174C12.7392 18.7566 13.0042 18.7699 13.3026 18.7633L13.0251 18.9783L12.4542 18.9224L12.5401 18.8174ZM12.0301 8.03993C12.4242 7.66326 13.4126 7.77576 13.6601 8.01493L13.7267 8.0091C13.3976 8.3166 12.8876 8.3516 12.5742 8.65576C12.3284 8.49243 12.1251 8.38743 12.0301 8.03993ZM14.1967 8.65576L14.3634 8.84493C14.2151 8.85326 14.0592 8.86243 13.9034 8.87576C13.5526 8.90576 13.2059 8.95826 12.9634 9.0841L12.9317 9.08576C12.9142 9.05828 12.8967 9.03078 12.8792 9.00326C13.2773 8.79445 13.7168 8.67661 14.1659 8.65826L14.1967 8.65576ZM15.0234 7.58076C15.2976 7.85576 15.7067 8.0191 15.8484 8.44076C15.2734 8.17326 14.3884 8.17743 13.9401 7.7516C14.3351 7.83576 14.6717 7.8041 15.0234 7.58076ZM15.2126 9.08576L15.9992 9.1941L16.0609 9.1891L15.4301 9.73076C15.3301 9.5316 15.3067 9.2616 15.2126 9.08576ZM16.2234 10.0058L16.0609 9.98076L16.2726 9.94576L16.2226 10.0058H16.2234ZM16.0609 9.4916L16.2551 9.30076L16.2726 9.51576L16.1317 9.48493L16.0609 9.4916ZM16.4459 16.6083L16.3526 16.6124L16.2726 16.5374L16.3342 16.4566L16.4842 16.3983L16.4459 16.6091V16.6083ZM16.2767 17.0016C16.3017 16.9716 16.3284 16.9416 16.3551 16.9116L16.3617 16.8283L16.4851 17.0241L16.2726 17.0433L16.2767 17.0016ZM16.1926 17.6883L16.0609 17.5299L16.4851 17.4733L16.2826 17.6816L16.1926 17.6883ZM16.2726 18.3333L15.8484 18.2824L16.1484 18.1183L16.2734 18.3333H16.2726ZM15.9751 17.7266L16.0609 17.8083L15.7534 17.8866L15.4242 17.9033L15.8826 17.6883L15.9751 17.7266ZM14.7884 8.44076C15.0359 8.44743 15.2976 8.50993 15.4242 8.65576C15.2534 8.6391 14.9459 8.6666 14.8684 8.53493L14.7884 8.44076ZM15.0034 9.30076C15.1242 9.4066 15.1667 9.5316 15.1451 9.73076C14.9584 9.6666 15.0067 9.46243 15.0034 9.30076ZM15.2117 10.6566L15.2192 10.6199C15.6417 10.5283 15.7326 10.6749 15.5401 10.8066C15.3734 10.7833 15.2984 10.7208 15.2126 10.6566H15.2117ZM15.7559 16.1824L15.8484 16.2058C15.8472 16.2157 15.8461 16.2257 15.8451 16.2358L15.6367 16.3974L15.7234 16.1849L15.7559 16.1824ZM15.6392 10.9374L15.7976 10.8066L15.8484 11.0216L15.6367 10.9749L15.6384 10.9374H15.6392ZM16.2726 16.6874L15.7601 16.8216L15.6367 16.8274C15.6367 16.8208 15.6384 16.8133 15.6401 16.8066C15.8317 16.7683 15.9551 16.7049 16.0684 16.6124L16.2484 16.6458L16.2734 16.6874H16.2726ZM15.9067 16.1824L15.8484 16.0633L15.9942 15.9674L16.0609 16.0033L15.9776 16.1766L15.9067 16.1824ZM14.5759 17.6699L14.8284 17.4733L15.6101 17.5399L15.6367 17.5983L15.1084 17.9033C14.9126 17.8708 14.7434 17.7841 14.6417 17.6649L14.5751 17.6699H14.5759ZM14.1834 17.6883L14.5751 17.9033L13.9392 17.7908C14.0209 17.7574 14.1017 17.7224 14.1834 17.6883ZM14.1517 18.1274C14.1508 18.1446 14.15 18.1619 14.1492 18.1791L14.0284 18.2458L13.9392 18.2574L13.9426 18.2058C14.0351 18.0833 14.0192 18.1241 14.1509 18.1274H14.1517ZM13.1517 9.37493C13.1317 9.35336 13.1114 9.33197 13.0909 9.31076C13.3017 9.19576 13.6342 9.14076 13.9609 9.11493C14.2301 9.09243 14.4951 9.08993 14.6851 9.08576L14.7884 9.73076C14.5109 9.70076 14.2467 9.6641 13.9609 9.6516C13.7139 9.63935 13.4664 9.64828 13.2209 9.67826C13.1983 9.57705 13.1753 9.47593 13.1517 9.37493ZM13.4634 18.0041L13.5151 18.0958L13.4651 18.2883L12.8792 18.3333C12.9417 18.1416 13.0351 18.0491 13.1359 17.9033L13.4634 18.0041ZM12.7401 17.2583C12.4734 17.2433 12.1084 17.0483 12.0301 16.8283L12.8792 17.0441L12.7401 17.2583ZM13.0384 17.2466L12.8792 17.2583L12.8842 17.2066L13.0609 17.0433C13.0526 17.1108 13.0459 17.1783 13.0384 17.2466ZM12.4551 9.38243L12.7134 9.30076L12.8792 9.5091L12.7042 9.51576L12.4542 9.38243H12.4551ZM12.4517 18.6158C12.4376 18.6624 12.4251 18.7099 12.4117 18.7574C12.3911 18.7585 12.3705 18.7605 12.3501 18.7633C12.3144 18.6915 12.2785 18.6199 12.2426 18.5483L12.4551 18.5699L12.4517 18.6158ZM12.5692 17.6883L13.0642 17.7883L13.0909 17.8549L12.7067 18.3333L12.2426 18.2649L12.5692 17.6883ZM16.2726 10.9483L16.3684 10.8074L16.4034 10.8066L16.6701 10.8733L16.6967 10.9116L16.3992 11.0216C16.3571 10.9971 16.3149 10.9726 16.2726 10.9483ZM16.8467 10.2533L16.6967 10.1616C16.8492 10.2174 16.7617 10.1541 16.8467 10.2533ZM16.7984 11.2366L16.6967 11.1499L16.9092 11.0216L16.7984 11.2366ZM16.6967 12.7416L17.0267 12.8233C17.1159 12.8583 17.1134 12.8674 17.1209 12.9566C16.9792 12.9024 16.7426 12.8649 16.6967 12.7416ZM16.7301 12.1558L16.7751 12.0974L16.9092 12.3116L16.6967 12.2699L16.7301 12.1558ZM12.4326 19.2316L12.4551 19.2883L12.1692 19.3974L12.0301 19.4083L12.0334 19.3791L12.1309 19.2266C12.2659 19.1641 12.2692 19.2049 12.4326 19.2316ZM11.8184 8.43993C12.0034 8.57826 12.0517 8.74826 12.0226 9.30076C11.9009 9.14493 11.8267 8.8141 11.8184 8.44076V8.43993ZM11.9401 8.01076L11.9251 8.1666L11.8192 8.1741L11.9409 8.01076H11.9401ZM11.8184 8.22576C11.8126 8.27743 11.8084 8.3291 11.8017 8.38076L11.6059 8.34493L11.7676 8.2291L11.8176 8.22576H11.8184ZM11.8184 20.6991L11.9234 19.6041L12.6667 19.4083L11.8851 20.6591L11.8184 20.6991ZM11.8709 17.7558L11.9851 17.6883C12.0892 17.8116 11.9959 17.9891 11.8976 18.1183C11.8159 18.0416 11.8067 17.9933 11.8284 17.8191L11.8701 17.7558H11.8709ZM11.1817 17.6508L11.4259 17.2583L11.8176 17.4883C11.6842 17.6983 11.5484 17.9083 11.4134 18.1183C11.2917 18.0099 11.2167 17.8508 11.1817 17.6516V17.6508ZM11.1817 19.3349L11.5734 18.9783L11.7576 18.9949L11.8184 19.0949C11.8017 19.1999 11.7867 19.3041 11.7717 19.4083L11.1817 19.3349ZM10.5459 19.0433L11.0126 18.7633L11.3676 18.8191L11.3942 18.8683L11.0201 19.1933C10.8334 19.1741 10.7092 19.1241 10.6117 19.0391L10.5451 19.0433H10.5459ZM10.4834 18.6274L10.6542 18.5483L10.7276 18.5641L10.7576 18.5991L10.2634 18.7633L10.1217 18.7133L10.4834 18.6274ZM9.90924 18.4258L10.0342 18.1233C10.2659 18.0933 10.3209 18.2074 10.4951 18.2799L10.5451 18.3566L10.2859 18.5341L10.0751 18.5483L9.90924 18.4258ZM9.48424 19.3083L9.79341 18.7633C9.99841 18.7633 10.0234 18.7799 10.1076 18.8883C10.1451 18.9516 10.1126 18.9174 10.0309 18.9316L10.0117 19.1191L10.3334 19.1691C10.2701 19.3266 10.2601 19.3058 10.1651 19.4058C9.84841 19.4224 9.70591 19.3624 9.48508 19.3083H9.48424ZM9.12758 18.5483L9.66674 18.7108L9.69674 18.7749L9.35091 19.1933L8.84841 19.0283L9.12758 18.5483ZM7.05008 17.9666L7.05674 17.9024L7.35758 18.1341L7.38341 18.1958C6.75758 18.6791 7.71508 20.2541 8.80424 19.2333L9.27258 19.4216C9.09258 19.7424 8.78341 19.8691 8.45758 20.0508C7.67841 20.1158 6.58758 18.8433 7.04924 17.9666H7.05008ZM7.77674 18.1866L7.78841 18.3324C7.73008 18.2883 7.67174 18.2458 7.61508 18.2016L7.57591 18.1174L7.77591 18.1866H7.77674ZM8.84841 19.0999L8.46091 19.3999C7.69758 19.4799 7.38841 18.9516 7.36341 18.3024L7.51258 18.1224L7.57758 18.1174C7.96174 18.4199 8.30174 18.8816 8.82341 19.0341L8.84841 19.0999ZM8.10924 15.9666C8.04008 15.9166 8.03591 15.8916 8.00091 15.8066L8.14591 15.2549L8.31508 15.1066L8.42424 15.2666L8.10924 15.9666ZM8.00091 16.1524L8.33508 15.3616L8.40341 15.3216C8.55758 15.5933 8.78091 15.7166 8.84841 16.0858L8.34508 16.6116C8.18857 16.495 8.06882 16.3359 8.00008 16.1533L8.00091 16.1524ZM8.63674 16.8108L9.06174 16.3966L9.27258 16.8274C9.06066 16.821 8.84871 16.8155 8.63674 16.8108ZM9.69674 12.4649C9.49591 12.8941 9.22841 13.1858 9.06841 13.6016C8.99841 13.2241 9.42008 12.6816 9.55591 12.3483L9.62091 12.3108L9.69674 12.4649ZM9.69674 11.2816C10.0126 11.1841 10.2242 11.0058 10.4501 10.8058L10.5459 11.0924L10.2776 11.4508L9.69674 11.2824V11.2816ZM10.7576 11.3041L10.6426 11.4508L10.5459 11.4341L10.5476 11.4108L10.7409 11.2358L10.7576 11.3041ZM10.5909 10.3774L10.6242 10.3758L10.7576 10.6566L10.7076 10.8058C10.5134 10.7041 10.5209 10.5833 10.5909 10.3774ZM10.5509 16.6116L10.7467 16.7524L10.5459 16.6641C10.547 16.6465 10.5487 16.629 10.5509 16.6116ZM10.5476 16.8274L10.7576 16.9183C10.7563 16.9266 10.7552 16.9349 10.7542 16.9433L10.3042 17.2574C10.1751 17.1991 10.1592 17.0833 10.1209 16.9574L10.1251 16.9308L10.5476 16.8274ZM9.92008 16.3966L10.1217 16.4783L10.0134 16.5408L9.90924 16.5524L9.92008 16.3966ZM9.90924 12.0966C10.1642 12.1683 10.0834 12.1199 10.0942 12.3108C9.97758 12.2424 9.96924 12.2099 9.90924 12.0958V12.0966ZM9.90924 15.9374L9.92674 15.7516C10.0259 15.8208 10.0601 15.8616 10.1217 15.9666C10.0509 15.9567 9.9801 15.947 9.90924 15.9374ZM10.3342 13.2516C10.2542 13.3541 10.2576 13.3266 10.1217 13.3858L10.2142 13.1708L10.3334 13.2516H10.3342ZM10.3342 12.3866L10.2009 12.5258C10.0676 12.4508 10.1301 12.4808 10.1901 12.3416L10.2692 12.3108L10.3334 12.3866H10.3342ZM10.3167 12.0208L10.1217 11.8808C10.2717 11.9383 10.2367 11.9033 10.3167 12.0208ZM9.90924 15.9666L10.1217 16.1358C10.0134 16.1333 9.95508 16.1099 9.90924 15.9666ZM10.5459 15.9583L10.4592 15.9666L10.3851 15.8299L10.3334 15.7633L10.4484 15.7516C10.4809 15.8208 10.5126 15.8899 10.5459 15.9583ZM10.4292 11.9766L10.3334 11.8816C10.4267 11.9466 10.3651 11.8833 10.4284 11.9774L10.4292 11.9766ZM10.4417 15.5183L10.3334 15.2933L10.3792 15.1083L10.4059 15.1066L10.5459 15.5366C10.5112 15.5304 10.4765 15.5243 10.4417 15.5183ZM9.88591 18.0208L9.90924 18.0491L9.83341 18.3333C9.74416 18.2962 9.66557 18.2375 9.60474 18.1624C9.54392 18.0873 9.50279 17.9983 9.48508 17.9033L9.88591 18.0216V18.0208ZM9.27258 18.3333L9.48508 18.5216C9.34924 18.4616 9.34091 18.4641 9.27258 18.3333ZM9.63924 16.4266L9.66424 16.6124L9.48508 16.3974L9.63924 16.4266ZM9.42924 17.4324L9.27258 17.0433C9.45841 17.1141 9.60341 17.3266 9.69758 17.4733L9.42924 17.4324ZM9.59591 13.6041L9.64841 13.6024L9.49341 13.8174C9.46841 13.7641 9.49924 13.7133 9.58508 13.6508L9.59591 13.6033V13.6041ZM9.48508 15.4524L9.44258 15.5374L9.32091 15.4433C9.30478 15.4091 9.28867 15.3749 9.27258 15.3408L9.43924 15.3224L9.48508 15.4524ZM8.00008 17.2583C8.42508 17.5349 9.14758 17.7916 9.27258 18.3333C8.76869 18.0816 8.33236 17.713 8.00008 17.2583ZM9.10258 17.0499L9.27258 17.2583L8.84841 17.0433L9.10258 17.0499ZM10.6559 17.6883L10.3334 17.3633L10.8976 16.8283L10.9701 17.4174L10.6559 17.6883ZM10.9701 18.0474L11.0259 17.9074L11.1009 17.9033L11.1817 18.1183L10.9701 18.0474ZM11.2559 17.2583L11.1817 17.0433L11.3359 17.0716L11.2559 17.2583ZM10.9701 10.0166L10.9717 9.99743C11.0417 9.98076 11.1117 9.9641 11.1817 9.94576L11.0351 10.1608L10.9701 10.0166ZM8.83091 14.4624L8.63674 14.0324C8.88591 14.0866 8.84508 14.2641 8.83091 14.4624ZM8.31174 14.6774C8.13008 14.5516 8.01424 14.3008 8.00008 14.0324C8.37258 14.1199 8.35174 14.2666 8.42508 14.6066L8.31174 14.6774ZM8.09258 13.5549C7.82174 13.2991 8.21591 12.2758 8.38924 12.0399C8.48091 11.9241 8.59591 11.9266 8.74758 11.8816L8.84841 11.9074C8.59341 12.3591 8.42174 12.9741 8.36091 13.6024L8.09258 13.5549ZM7.69674 17.0433L7.82591 17.2608L7.71008 17.5316L7.64341 17.6024C7.73841 17.6158 7.76008 17.5341 7.90174 17.4183C8.17674 17.8641 8.59674 18.2908 9.06008 18.5333L8.80758 18.9783L8.04091 18.4849C7.95341 18.3224 8.07424 18.1358 7.93341 18.0366C7.80591 17.9466 7.64174 18.0766 7.51174 18.0374L7.15174 17.7074C7.25758 17.4708 7.35924 17.2391 7.56841 17.1183L7.69674 17.0433ZM6.96341 14.6716C6.99233 14.4571 7.03379 14.2445 7.08758 14.0349L7.11591 14.0324L7.22674 14.6716L7.28508 15.0049C7.45174 15.4699 7.62008 15.9341 7.78841 16.3974C7.38508 16.1774 7.13591 15.6683 7.17174 14.9833C7.07508 15.2041 7.15508 15.5516 7.18674 15.7466C6.93924 15.5366 6.90758 15.1191 6.96258 14.6716H6.96341ZM6.59508 14.8924C6.55654 14.8111 6.53229 14.7237 6.52341 14.6341C6.51154 14.5135 6.51266 14.392 6.52674 14.2716L6.56341 14.1949L6.72758 14.0324L6.63508 14.6333L6.59508 14.8916V14.8924ZM21.3634 17.0424L20.9392 16.8791L21.3509 16.8283L21.3634 17.0433V17.0424ZM10.1384 20.5424L10.2492 20.4841L10.1209 20.6983L10.1376 20.5433L10.1384 20.5424ZM6.93924 13.1724L6.75841 13.1558C6.53341 13.0816 6.32258 12.8191 6.30341 12.5274C6.64758 12.5583 6.76424 12.7216 6.93424 12.9208C6.93591 13.0041 6.93841 13.0883 6.93924 13.1724ZM6.91424 13.1549C6.93924 12.6908 6.58508 12.4008 6.12508 12.4133C6.20341 11.7616 6.77008 11.4283 7.27508 11.2091L7.37258 11.2016C7.28841 12.0199 7.35258 12.7249 7.04674 13.4333C6.82091 13.9549 6.02008 13.9449 6.06341 14.7499L6.06924 14.8166C6.18341 15.8866 7.34674 16.1041 7.50758 17.0449C5.78258 17.9224 7.88508 21.6099 9.24924 19.4441C9.49424 19.4791 9.71174 19.5899 10.0159 19.4833C10.1576 19.4049 10.1851 19.3416 10.2401 19.1783L10.7276 19.4308L10.7526 19.4924C10.3059 19.8391 9.99091 20.3149 9.51091 20.6399L9.55674 20.5083L9.43174 20.4858L9.36258 20.5233L9.30008 20.8149C9.57424 21.0949 10.4051 20.0824 10.6484 19.8841C10.5109 20.3649 10.1709 20.6124 9.98174 21.0524L10.0401 21.1124C10.3984 20.8558 10.8376 20.1291 10.9042 19.5766L11.4409 19.6658C10.7684 20.5749 9.04091 22.5749 8.13258 23.1091C8.27091 22.6749 8.49091 22.3433 8.60258 21.9866L8.53758 21.9916C8.5182 21.9715 8.49876 21.9515 8.47924 21.9316C8.25841 22.3666 7.89424 22.6724 7.82924 23.2591C7.86808 23.3172 7.91722 23.3678 7.97424 23.4083C9.05424 23.2283 10.8576 20.5141 11.7192 19.7724C11.4859 22.1141 10.2309 22.4791 9.14258 23.8974C10.1317 23.4041 10.7317 22.1458 11.5776 21.4474C11.4842 22.4249 11.2517 24.6108 10.6667 24.9999L10.7634 24.9924C11.4201 24.5841 11.4584 22.9049 11.6776 22.0466L11.7709 21.1441L12.7084 19.8274L12.7767 19.7899C12.8817 20.1191 13.3567 20.4766 13.8709 20.3808L14.2401 20.2258L15.1667 20.5724C15.2884 21.9058 15.2417 22.6533 14.3976 23.6683C15.2601 23.2274 15.5767 21.5291 15.2892 20.6274C17.2951 20.8599 17.2142 20.1833 16.8342 18.7224L17.1867 18.7283C17.1217 18.6308 16.9459 18.7033 16.8117 18.6283C16.7509 18.5891 16.7626 18.5966 16.7251 18.5383C17.2017 18.0008 18.3501 18.5349 18.1084 19.4274C18.4384 18.6874 17.7092 18.0291 17.0067 18.2941C17.3067 17.9383 17.6701 17.6458 17.8601 17.1749L17.9284 17.1383L19.5784 18.8716L19.6759 18.8641L19.7509 18.7624C19.2259 18.1408 18.7017 17.5183 18.1784 16.8958L18.3467 16.8191C18.384 16.7807 18.4296 16.7516 18.4802 16.7341C18.5307 16.7166 18.5846 16.7111 18.6376 16.7183C18.6098 16.7044 18.582 16.6906 18.5542 16.6766C19.3967 16.7608 20.4734 17.4633 21.3526 17.2366C21.4334 17.0958 21.4376 17.0199 21.3884 16.8824C22.3251 16.9058 24.0101 16.5924 24.5467 16.1374C23.1051 16.4399 21.4817 16.5424 20.1584 16.3658L18.9859 16.2283L18.9201 16.2333L19.2359 15.6666C20.2026 15.6483 22.7376 15.6241 23.2501 15.0174L23.1367 14.8658L22.6951 14.8024C22.6642 14.8518 22.6469 14.9084 22.6451 14.9666L22.9951 15.0041C22.2351 15.1958 20.1184 15.5999 19.4276 15.3641C19.3551 15.2758 19.4084 14.9691 19.4117 14.7483C19.413 14.7087 19.4113 14.6692 19.4067 14.6299C20.4001 14.3333 21.1376 13.6649 21.4401 12.6566C21.6126 12.0791 21.4984 11.3208 21.8717 10.9608C22.1101 10.9816 22.1584 11.0824 22.3334 11.1508C22.2409 11.0224 22.1084 10.9508 21.9426 10.8924L21.6317 11.1066C21.3476 11.2166 21.0501 10.9291 20.5676 11.1533C20.1759 10.8183 19.9551 10.2891 19.4259 10.0866L19.3717 9.99493L20.0134 9.37076C19.8034 9.5466 19.5892 9.7541 19.3751 9.96243L18.9451 9.76993L18.9201 9.70743C19.4101 9.36076 19.8451 9.23243 20.4026 9.34243C20.4284 9.3941 20.4559 9.44493 20.4826 9.4966C20.4567 9.54076 20.4334 9.55326 20.4109 9.56576L20.2234 9.51576C20.3042 9.56326 20.3884 9.57826 20.4726 9.59326L20.5434 9.5241L20.5542 9.42743C20.4326 9.3191 20.3951 9.24076 20.1559 9.23243L20.2701 9.0641C19.9967 9.25243 19.4417 9.30243 19.1701 9.46576L19.7984 8.97076L19.8734 8.86993L18.7109 9.56326C18.4626 9.5466 18.1984 9.42993 18.0642 9.29076C18.0429 9.29241 18.0215 9.29408 18.0001 9.29576L19.3801 8.36243L19.3576 8.26826C18.8342 8.57326 18.3101 8.87826 17.7876 9.1841L17.2859 9.06076L17.3326 8.60993L20.9301 5.78493L20.9942 5.77993L20.9434 5.65576C20.8101 5.59243 20.2626 6.0366 20.0559 6.1691C19.2592 6.67993 18.5551 7.31576 17.7717 7.77743C18.0951 7.3666 18.6867 6.95743 18.7851 6.3591L18.6267 6.3391L18.3801 6.5491L18.6484 6.43243C18.4751 6.95993 17.6901 7.9016 17.2467 8.19993L17.1951 8.07576C17.4834 7.59076 17.7676 6.93826 17.6342 6.31576L17.3926 6.1741L17.1334 6.19326C17.2992 6.2591 17.4117 6.27493 17.5334 6.35576C17.6109 6.9591 17.3142 7.36743 17.1542 7.85576L17.0859 7.89243C16.9792 7.69493 16.9859 7.59993 16.7667 7.5641L16.7476 7.43743L16.8976 7.2341L17.0009 7.16243C17.0359 7.2291 17.0376 7.20493 17.0484 7.3191C17.0791 7.27003 17.0961 7.21363 17.0976 7.15576L16.9751 7.10076L16.6509 7.4441C16.3801 7.26326 16.0817 7.07326 15.7009 7.00243C15.9167 6.55493 16.5726 5.83576 16.2342 5.26826C15.8209 4.57826 14.4101 5.37326 13.8934 5.92076C13.8335 5.98181 13.7814 6.05012 13.7384 6.1241C13.7896 6.08342 13.8412 6.04342 13.8934 6.0041C14.4034 5.6241 15.7609 4.7141 16.0551 5.4416C16.3634 5.84743 15.7726 6.62826 15.6117 6.94576C15.0617 6.88993 14.4867 6.83743 13.8951 6.8491C13.2723 6.85453 12.654 6.95398 12.0609 7.1441C11.7609 7.24326 10.4809 8.00993 10.4317 7.99993L9.84841 7.43493L8.62841 6.82243L8.62174 6.8866L8.55008 6.95576L10.1134 8.2791L9.87508 8.42493C9.23174 7.93743 8.78841 7.6416 7.83091 7.39243L7.66924 7.40493C8.22841 7.78993 8.79174 8.14243 9.35424 8.49576L9.46674 8.64743C9.06508 8.8166 8.89508 9.16826 8.55591 9.3866C8.02591 9.13326 7.53508 8.90326 6.89258 8.7091L6.84758 8.84076L8.05091 9.61576L8.11591 9.61076L7.90841 9.7541C7.81258 10.0766 7.62508 10.4508 7.46841 10.9058C6.86841 11.3941 6.09091 11.3649 5.97008 12.3599C5.77841 12.4124 5.64341 12.4291 5.46841 12.5574L5.45508 12.6866C5.56508 12.8399 6.53924 13.2524 6.77174 13.2924L6.91508 13.1541L6.91424 13.1549ZM14.0309 6.27493L14.1201 6.2916L14.0009 6.2766C13.9801 6.2766 13.9592 6.27826 13.9392 6.2791C14.0334 6.1041 14.3101 6.06076 14.5759 6.07993L14.5576 6.2066L14.0376 6.23243L14.0309 6.2741V6.27493ZM14.4026 6.50576L14.6526 6.4241C14.7609 6.2441 14.8226 6.05326 14.7676 5.8791C14.5101 5.82826 14.3617 5.89076 14.1209 5.99243C14.0771 6.06369 14.0335 6.13508 13.9901 6.2066L13.9401 6.28993C13.9555 6.30782 13.9722 6.32453 13.9901 6.33993C14.0717 6.4066 14.1701 6.42993 14.3509 6.41493C14.4009 6.49993 14.3426 6.46243 14.2534 6.48576L14.4034 6.50576H14.4026ZM20.5717 8.4416L20.3034 8.4916L20.4684 8.47993L20.6576 8.5616L20.3709 9.0866C20.5184 8.91243 20.6651 8.7891 20.7276 8.52493L20.5717 8.4416ZM19.0301 16.8291C18.9634 16.7099 18.8909 16.6316 18.8184 16.6133C18.8826 16.6741 18.9567 16.7458 19.0301 16.8291ZM18.1817 19.4091L17.9701 19.5324L18.1326 19.5174L18.1826 19.4091H18.1817ZM19.0301 16.8291C19.2459 17.0724 19.4076 17.5391 19.3609 17.9041C19.6059 17.3749 19.3267 17.0449 19.0301 16.8291Z" fill="white"/>
</g>
<defs>
<clipPath id="clip0_1501_556">
<rect width="20" height="20" fill="white" transform="translate(5 5)"/>
</clipPath>
</defs>
</svg>
